# xmcd CD database file
#
# Track frame offsets:
#	187
#	22580
#	42950
#
# Disc length: 868 seconds
#
# Revision: 1
# Processed by: cddbd v1.5.1PL2 Copyright (c) Steve Scherf et al.
# Submitted via: CD2WAV32(JP) R3.22
#
DISCID=14036203
DTITLE=近藤房之助＆織田哲郎 - BOMBER GIRL
DYEAR=1992
DGENRE=JPop
TTITLE0=BOMBER GIRL
TTITLE1=THE DARK SIDE OF THE CITY
TTITLE2=BOMBER GIRL
EXTD=
EXTT0=
EXTT1=
EXTT2=
PLAYORDER=
